HIERARCHY
ROOT Hips
{
	OFFSET 0.000000 8.830580 0.000000
	CHANNELS 6 Xposition Yposition Zposition Zrotation Yrotation Xrotation 
	JOINT Spine
	{
		OFFSET 0.000000 0.010000 0.000000
		CHANNELS 3 Zrotation Yrotation Xrotation
		JOINT Spine1
		{
			OFFSET 0.000000 2.459130 0.000000
			CHANNELS 3 Zrotation Yrotation Xrotation
			JOINT Neck
			{
				OFFSET 0.000000 2.484630 0.000000
				CHANNELS 3 Zrotation Yrotation Xrotation
				JOINT Head_virtual
				{
					OFFSET 0.000000 0.000000 0.000000
					CHANNELS 3 Zrotation Yrotation Xrotation
					JOINT Head
					{
						OFFSET 0.000000 0.927525 0.000000
						CHANNELS 3 Zrotation Yrotation Xrotation
						End Site
						{
							OFFSET 0.000000 0.000000 0.000000
						}
					}
				}
				JOINT LeftUpArm_virtual
				{
					OFFSET 0.000000 0.000000 0.000000
					CHANNELS 3 Zrotation Yrotation Xrotation
					JOINT LeftUpArm
					{
						OFFSET 1.248820 0.000000 0.000000
						CHANNELS 3 Zrotation Yrotation Xrotation
						JOINT LeftForeArm
						{
							OFFSET 2.597580 0.000000 0.000000
							CHANNELS 3 Zrotation Yrotation Xrotation
							JOINT LeftHand
							{
								OFFSET 2.455420 0.000000 0.000000
								CHANNELS 3 Zrotation Yrotation Xrotation
								End Site
								{
									OFFSET 0.000000 0.000000 0.000000
								}
							}
						}
					}
				}
				JOINT RightUpArm_virtual
				{
					OFFSET -0.000000 -0.000000 -0.000000
					CHANNELS 3 Zrotation Yrotation Xrotation
					JOINT RightUpArm
					{
						OFFSET -1.248820 -0.000000 -0.000000
						CHANNELS 3 Zrotation Yrotation Xrotation
						JOINT RightForeArm
						{
							OFFSET -2.597580 -0.000000 -0.000000
							CHANNELS 3 Zrotation Yrotation Xrotation
							JOINT RightHand
							{
								OFFSET -2.455420 -0.000000 -0.000000
								CHANNELS 3 Zrotation Yrotation Xrotation
								End Site
								{
									OFFSET 0.000000 0.000000 0.000000
								}
							}
						}
					}
				}
			}
		}
	}
	JOINT LeftUpLeg
	{
		OFFSET 1.271939 0.000000 0.000000
		CHANNELS 3 Zrotation Yrotation Xrotation
		JOINT LeftLowLeg
		{
			OFFSET 0.000000 -4.342910 0.000000
			CHANNELS 3 Zrotation Yrotation Xrotation
			JOINT LeftFoot
			{
				OFFSET 0.000000 -4.487670 0.000000
				CHANNELS 3 Zrotation Yrotation Xrotation
				JOINT LeftToeBase
				{
					OFFSET 0.000000 0.000000 1.515070
					CHANNELS 3 Zrotation Yrotation Xrotation
					End Site
					{
						OFFSET 0.000000 0.000000 0.000000
					}
				}
			}
		}
	}
	JOINT RightUpLeg
	{
		OFFSET -1.271939 0.000000 0.000000
		CHANNELS 3 Zrotation Yrotation Xrotation
		JOINT RightLowLeg
		{
			OFFSET 0.000000 -4.342910 0.000000
			CHANNELS 3 Zrotation Yrotation Xrotation
			JOINT RightFoot
			{
				OFFSET 0.000000 -4.487670 0.000000
				CHANNELS 3 Zrotation Yrotation Xrotation
				JOINT RightToeBase
				{
					OFFSET 0.000000 0.000000 1.515070
					CHANNELS 3 Zrotation Yrotation Xrotation
					End Site
					{
						OFFSET 0.000000 0.000000 0.000000
					}
				}
			}
		}
	}
}
MOTION
Frames: 8
Frame Time: 0.041667
-16.511717 8.738555 41.406132 172.439095 1.288116 -179.686104 6.299540 6.182284 -17.640430 -8.574541 2.767802 15.166417 0.000000 0.000000 0.000000 -23.313021 15.737366 2.632628 -20.415130 -29.617319 -76.931959 -19.031401 12.206000 -8.181980 22.850100 -4.732700 -32.087601 0.000000 -53.830601 0.000000 -25.287300 3.498820 -3.916260 20.025999 -6.155690 1.061440 20.623699 -1.388210 80.029999 0.000000 82.153999 0.000000 -61.353100 45.421600 -4.237940 -14.050892 -20.728834 0.303131 0.000000 0.000000 6.036810 -5.257530 16.711598 -2.712756 0.000000 0.000000 -12.099380 -17.141336 7.680063 -13.389915 0.000000 0.000000 36.149601 16.321407 -11.002831 -9.969175 0.000000 0.000000 -18.559090 
-16.506141 8.740846 41.413587 172.485973 1.289133 -179.689767 6.245082 6.142578 -17.596297 -8.508282 2.805563 15.428553 0.000000 0.000000 0.000000 -23.210900 15.729268 2.542252 -20.287192 -29.679898 -77.134106 -19.034100 12.157200 -8.232490 22.857100 -4.784760 -31.923800 0.000000 -53.819599 0.000000 -25.291000 3.591370 -3.901310 19.995600 -6.229420 0.947530 20.632299 -1.322020 79.944000 0.000000 82.184502 0.000000 -61.186401 45.588001 -4.143940 -13.960189 -20.764099 0.263421 0.000000 0.000000 6.027650 -5.250407 16.770744 -2.666596 0.000000 0.000000 -12.096630 -17.069409 7.715802 -13.398738 0.000000 0.000000 36.076099 16.379767 -10.980875 -9.889845 0.000000 0.000000 -18.595040 
-16.500838 8.742820 41.421031 172.521101 1.253999 -179.694811 6.183020 6.097214 -17.561950 -8.446795 2.845602 15.706967 0.000000 0.000000 0.000000 -23.079388 15.682507 2.448054 -20.184322 -29.709922 -77.252207 -19.046400 12.036100 -8.203990 22.937201 -4.790040 -31.799900 0.000000 -53.802700 0.000000 -25.164101 3.738960 -3.889910 19.921600 -6.352980 0.856728 20.713499 -1.177070 79.854004 0.000000 82.176102 0.000000 -60.908600 45.768101 -3.967010 -13.884032 -20.878151 0.226250 0.000000 0.000000 6.024190 -5.281494 16.851773 -2.627400 0.000000 0.000000 -12.088060 -17.013252 7.662002 -13.375505 0.000000 0.000000 35.978699 16.418670 -10.897397 -9.827018 0.000000 0.000000 -18.581160 
-16.496634 8.744649 41.429038 172.554831 1.254384 -179.684904 6.144839 6.050743 -17.479992 -8.418083 2.848578 15.887849 0.000000 0.000000 0.000000 -22.968316 15.669112 2.401098 -20.108425 -29.729667 -77.411103 -19.059401 11.992000 -8.149970 23.008499 -4.810090 -31.835300 0.000000 -53.762501 0.000000 -25.171000 3.736400 -3.960620 19.882401 -6.374040 0.758245 20.718201 -1.130880 79.747009 0.000000 82.211899 0.000000 -60.466999 45.991299 -3.475730 -13.808964 -20.945621 0.164101 0.000000 0.000000 6.025660 -5.300529 16.931345 -2.592652 0.000000 0.000000 -12.124730 -16.973879 7.631311 -13.392292 0.000000 0.000000 35.890598 16.460017 -10.804293 -9.742849 0.000000 0.000000 -18.631690 
-16.493691 8.746228 41.437446 172.584191 1.242974 -179.672964 6.136550 6.007528 -17.328250 -8.427907 2.809382 15.949479 0.000000 0.000000 0.000000 -22.880373 15.680066 2.421170 -20.028857 -29.748674 -77.608121 -19.057301 11.998700 -8.037030 23.061600 -4.841990 -31.897900 0.000000 -53.735401 0.000000 -25.023500 3.724420 -3.995490 19.858000 -6.363560 0.808177 20.720900 -1.050000 79.640991 0.000000 82.232201 0.000000 -60.270699 46.030998 -3.362010 -13.740183 -20.953774 0.093907 0.000000 0.000000 6.033310 -5.297046 16.944491 -2.556138 0.000000 0.000000 -12.102860 -16.949391 7.479552 -13.419186 0.000000 0.000000 35.828800 16.457217 -10.642156 -9.648705 0.000000 0.000000 -18.597100 
-16.490847 8.747774 41.446525 172.626208 1.227968 -179.655795 6.170262 5.992879 -17.139141 -8.517938 2.754032 15.963829 0.000000 0.000000 0.000000 -22.831352 15.776510 2.519676 -19.787973 -29.781481 -77.932203 -19.043301 12.041800 -7.912630 23.143999 -4.926790 -32.071400 0.000000 -53.749599 0.000000 -24.991699 3.771830 -4.086350 19.910200 -6.348230 0.835736 20.692600 -0.982665 79.578003 0.000000 82.237701 0.000000 -60.089699 46.189400 -3.505450 -13.648445 -20.854401 -0.000716 0.000000 0.000000 6.066350 -5.307383 16.829214 -2.521455 0.000000 0.000000 -12.130600 -16.915704 7.255971 -13.439924 0.000000 0.000000 35.731300 16.459544 -10.429344 -9.529164 0.000000 0.000000 -18.577240 
-16.488818 8.749212 41.454256 172.651683 1.208147 -179.643653 6.179452 5.946470 -16.977098 -8.561501 2.692685 15.992230 0.000000 0.000000 0.000000 -22.833728 15.868719 2.600626 -19.692732 -29.792468 -78.147249 -19.021999 12.100400 -7.885430 23.157900 -5.047500 -32.195499 0.000000 -53.791801 0.000000 -24.932400 3.846260 -3.944390 19.927601 -6.301140 0.895034 20.679399 -0.932798 79.467010 0.000000 82.259399 0.000000 -59.879601 46.319901 -3.494730 -13.584743 -20.817287 -0.069097 0.000000 0.000000 6.074360 -5.298042 16.774541 -2.464741 0.000000 0.000000 -12.136290 -16.897959 7.084664 -13.471672 0.000000 0.000000 35.680801 16.462196 -10.273531 -9.423017 0.000000 0.000000 -18.560610 
-16.486808 8.750499 41.462245 172.670610 1.243103 -179.632467 6.180472 5.932057 -16.812180 -8.590956 2.666847 16.023420 0.000000 0.000000 0.000000 -22.774038 15.928220 2.719653 -19.651872 -29.771855 -78.372884 -18.946400 12.168500 -7.844530 23.097300 -5.199300 -32.309898 0.000000 -53.841099 0.000000 -24.902800 3.837410 -3.942040 19.919201 -6.227180 0.965344 20.723900 -0.921811 79.364014 0.000000 82.255302 0.000000 -59.858200 46.371700 -3.430290 -13.531472 -20.814853 -0.126433 0.000000 0.000000 6.058280 -5.370140 16.784846 -2.472081 0.000000 0.000000 -12.110330 -16.886379 6.953389 -13.535024 0.000000 0.000000 35.638599 16.397094 -10.161414 -9.307559 0.000000 0.000000 -18.540740 
